<svg width="166" height="163" viewBox="0 0 166 163" fill="none" xmlns="http://www.w3.org/2000/svg">
<path d="M138.961 0H27.2447C12.9395 0 0.677979 11.4013 0.677979 26.1559V136.145C0.677979 150.229 12.2583 162.301 27.2447 162.301H138.961C153.266 162.301 165.528 150.899 165.528 136.145V26.1559C165.528 11.4013 153.947 0 138.961 0ZM83.1028 121.39C79.6968 121.39 72.8848 120.72 72.8848 120.72L47.6806 136.816C46.9994 137.486 45.6369 136.816 45.6369 135.474L49.7242 113.342C0.678009 86.5157 27.9258 28.8386 83.1028 29.5092C160.759 31.5212 160.759 119.378 83.1028 121.39Z" fill="#343434"/>
</svg>
